<?xml version="1.0" encoding="UTF-8" standalone="no"?>
<!DOCTYPE svg PUBLIC "-//W3C//DTD SVG 1.1//EN"
 "http://www.w3.org/Graphics/SVG/1.1/DTD/svg11.dtd">
<!-- Generated by graphviz version 2.40.1 (20161225.0304)
 -->
<!-- Title: G Pages: 1 -->
<svg width="154pt" height="286pt"
 viewBox="0.00 0.00 153.57 286.00" xmlns="http://www.w3.org/2000/svg" xmlns:xlink="http://www.w3.org/1999/xlink">
<g id="graph0" class="graph" transform="scale(1 1) rotate(0) translate(4 282)">
<title>G</title>
<polygon fill="#ffffff" stroke="transparent" points="-4,4 -4,-282 149.569,-282 149.569,4 -4,4"/>
<!-- A0 -->
<g id="node1" class="node">
<title>A0</title>
<polygon fill="none" stroke="#000000" points="20.151,-160 20.151,-192 131.151,-192 131.151,-160 20.151,-160"/>
<text text-anchor="start" x="31.0525" y="-173" font-family="Helvetica,sans-Serif" font-size="10.00" fill="#000000">+SuggestedClasses</text>
<polygon fill="none" stroke="#000000" points="20.151,-80 20.151,-160 131.151,-160 131.151,-80 20.151,-80"/>
<text text-anchor="start" x="36.324" y="-141" font-family="Helvetica,sans-Serif" font-size="10.00" fill="#000000"> +student:Student</text>
<text text-anchor="start" x="36.336" y="-117" font-family="Helvetica,sans-Serif" font-size="10.00" fill="#000000">+classes:Class&lt;&gt;</text>
<text text-anchor="start" x="29.938" y="-93" font-family="Helvetica,sans-Serif" font-size="10.00" fill="#000000">+suggested:Class&lt;&gt;</text>
<polygon fill="none" stroke="#000000" points="20.151,0 20.151,-80 131.151,-80 131.151,0 20.151,0"/>
<text text-anchor="start" x="32.168" y="-61" font-family="Helvetica,sans-Serif" font-size="10.00" fill="#000000"> +SuggestByReqs()</text>
<text text-anchor="start" x="30.2235" y="-37" font-family="Helvetica,sans-Serif" font-size="10.00" fill="#000000">+ReviseSuggested()</text>
<text text-anchor="start" x="53.015" y="-13" font-family="Helvetica,sans-Serif" font-size="10.00" fill="#000000">+Display()</text>
</g>
<!-- A1 -->
<g id="node2" class="node">
<title>A1</title>
<polygon fill="none" stroke="#000000" points="68.4537,-278 -.1517,-278 -.1517,-242 68.4537,-242 68.4537,-278"/>
<text text-anchor="middle" x="34.151" y="-257" font-family="Helvetica,sans-Serif" font-size="10.00" fill="#000000">+Student</text>
</g>
<!-- A1&#45;&gt;A0 -->
<g id="edge1" class="edge">
<title>A1&#45;&gt;A0</title>
<path fill="none" stroke="#000000" d="M38.6954,-241.8225C41.8645,-229.1461 46.3649,-211.1443 51.1269,-192.0963"/>
<text text-anchor="middle" x="34.8916" y="-219.1876" font-family="Helvetica,sans-Serif" font-size="10.00" fill="#000000">1</text>
</g>
<!-- A2 -->
<g id="node3" class="node">
<title>A2</title>
<polygon fill="none" stroke="#000000" points="145.4872,-278 86.8148,-278 86.8148,-242 145.4872,-242 145.4872,-278"/>
<text text-anchor="middle" x="116.151" y="-257" font-family="Helvetica,sans-Serif" font-size="10.00" fill="#000000">+Class</text>
</g>
<!-- A2&#45;&gt;A0 -->
<g id="edge2" class="edge">
<title>A2&#45;&gt;A0</title>
<path fill="none" stroke="#000000" d="M111.6066,-241.8225C108.4375,-229.1461 103.9371,-211.1443 99.1751,-192.0963"/>
<text text-anchor="middle" x="99.0104" y="-223.2876" font-family="Helvetica,sans-Serif" font-size="10.00" fill="#000000">*</text>
</g>
</g>
</svg>
