<?xml version="1.0" encoding="UTF-8" standalone="no"?>
<!DOCTYPE svg PUBLIC "-//W3C//DTD SVG 1.1//EN"
 "http://www.w3.org/Graphics/SVG/1.1/DTD/svg11.dtd">
<!-- Generated by graphviz version 2.40.1 (20161225.0304)
 -->
<!-- Title: G Pages: 1 -->
<svg width="150pt" height="786pt"
 viewBox="0.00 0.00 150.00 786.00" xmlns="http://www.w3.org/2000/svg" xmlns:xlink="http://www.w3.org/1999/xlink">
<g id="graph0" class="graph" transform="scale(1 1) rotate(0) translate(4 782)">
<title>G</title>
<polygon fill="#ffffff" stroke="transparent" points="-4,4 -4,-782 146,-782 146,4 -4,4"/>
<!-- A0 -->
<g id="node1" class="node">
<title>A0</title>
<polygon fill="none" stroke="#000000" points="33,-746 33,-778 110,-778 110,-746 33,-746"/>
<text text-anchor="start" x="42.7455" y="-759" font-family="Helvetica,sans-Serif" font-size="10.00" fill="#000000">+I:ICustomer</text>
<polygon fill="none" stroke="#000000" points="33,-714 33,-746 110,-746 110,-714 33,-714"/>
<text text-anchor="start" x="70.1105" y="-727" font-family="Helvetica,sans-Serif" font-size="10.00" fill="#000000"> </text>
<polygon fill="none" stroke="#000000" points="33,-682 33,-714 110,-714 110,-682 33,-682"/>
<text text-anchor="start" x="51.3595" y="-695" font-family="Helvetica,sans-Serif" font-size="10.00" fill="#000000"> +Greet()</text>
</g>
<!-- A1 -->
<g id="node2" class="node">
<title>A1</title>
<polygon fill="none" stroke="#000000" points="4,-600 4,-632 138,-632 138,-600 4,-600"/>
<text text-anchor="start" x="46.414" y="-613" font-family="Helvetica,sans-Serif" font-size="10.00" fill="#000000">+Customer</text>
<polygon fill="none" stroke="#000000" points="4,-544 4,-600 138,-600 138,-544 4,-544"/>
<text text-anchor="start" x="40.576" y="-581" font-family="Helvetica,sans-Serif" font-size="10.00" fill="#000000"> +name:string</text>
<text text-anchor="start" x="14.891" y="-557" font-family="Helvetica,sans-Serif" font-size="10.00" fill="#000000">&#45;creditCardNumber:string</text>
<polygon fill="none" stroke="#000000" points="4,-500 4,-544 138,-544 138,-500 4,-500"/>
<text text-anchor="start" x="13.7815" y="-525" font-family="Helvetica,sans-Serif" font-size="10.00" fill="#000000">&#45;CreditCardNumber:string</text>
<text text-anchor="start" x="53.779" y="-513" font-family="Helvetica,sans-Serif" font-size="10.00" fill="#000000"> Greet()</text>
</g>
<!-- A0&#45;&gt;A1 -->
<g id="edge1" class="edge">
<title>A0&#45;&gt;A1</title>
<path fill="none" stroke="#000000" d="M71,-671.6433C71,-658.8694 71,-645.2585 71,-632.2028"/>
<polygon fill="none" stroke="#000000" points="67.5001,-671.6816 71,-681.6816 74.5001,-671.6816 67.5001,-671.6816"/>
</g>
<!-- A2 -->
<g id="node3" class="node">
<title>A2</title>
<polygon fill="none" stroke="#000000" points="0,-418 0,-450 142,-450 142,-418 0,-418"/>
<text text-anchor="start" x="43.915" y="-431" font-family="Helvetica,sans-Serif" font-size="10.00" fill="#000000">+A:HotDrink</text>
<polygon fill="none" stroke="#000000" points="0,-290 0,-418 142,-418 142,-290 0,-290"/>
<text text-anchor="start" x="41.1265" y="-399" font-family="Helvetica,sans-Serif" font-size="10.00" fill="#000000"> +instant:bool</text>
<text text-anchor="start" x="48.3595" y="-375" font-family="Helvetica,sans-Serif" font-size="10.00" fill="#000000">+milk:bool</text>
<text text-anchor="start" x="45.9945" y="-351" font-family="Helvetica,sans-Serif" font-size="10.00" fill="#000000">&#45;sugar:byte</text>
<text text-anchor="start" x="41.686" y="-327" font-family="Helvetica,sans-Serif" font-size="10.00" fill="#000000">+brand:string</text>
<text text-anchor="start" x="45.5795" y="-303" font-family="Helvetica,sans-Serif" font-size="10.00" fill="#000000">+size:string</text>
<polygon fill="none" stroke="#000000" points="0,-246 0,-290 142,-290 142,-246 0,-246"/>
<text text-anchor="start" x="9.7315" y="-271" font-family="Helvetica,sans-Serif" font-size="10.00" fill="#000000"> +AddSugar(amount:byte):v</text>
<text text-anchor="start" x="44.7455" y="-259" font-family="Helvetica,sans-Serif" font-size="10.00" fill="#000000"> +Steam():a</text>
<polygon fill="none" stroke="#000000" points="0,-202 0,-246 142,-246 142,-202 0,-202"/>
<text text-anchor="start" x="66.2815" y="-227" font-family="Helvetica,sans-Serif" font-size="10.00" fill="#000000"> ()</text>
<text text-anchor="start" x="39.887" y="-215" font-family="Helvetica,sans-Serif" font-size="10.00" fill="#000000"> (brand:string)</text>
</g>
<!-- A1&#45;&gt;A2 -->
<g id="edge3" class="edge">
<title>A1&#45;&gt;A2</title>
<path fill="none" stroke="#000000" d="M71,-499.7836C71,-484.2439 71,-467.187 71,-450.0203"/>
<text text-anchor="middle" x="62.5476" y="-478.6575" font-family="Helvetica,sans-Serif" font-size="10.00" fill="#000000">1</text>
</g>
<!-- A3 -->
<g id="node4" class="node">
<title>A3</title>
<polygon fill="none" stroke="#000000" points="3,-120 3,-152 139,-152 139,-120 3,-120"/>
<text text-anchor="start" x="38.906" y="-133" font-family="Helvetica,sans-Serif" font-size="10.00" fill="#000000">+CupOfCoffee</text>
<polygon fill="none" stroke="#000000" points="3,-88 3,-120 139,-120 139,-88 3,-88"/>
<text text-anchor="start" x="30.8475" y="-101" font-family="Helvetica,sans-Serif" font-size="10.00" fill="#000000"> +beanType:string</text>
<polygon fill="none" stroke="#000000" points="3,-56 3,-88 139,-88 139,-56 3,-56"/>
<text text-anchor="start" x="44.7455" y="-69" font-family="Helvetica,sans-Serif" font-size="10.00" fill="#000000"> +Steam():o</text>
<polygon fill="none" stroke="#000000" points="3,0 3,-56 139,-56 139,0 3,0"/>
<text text-anchor="start" x="66.2815" y="-37" font-family="Helvetica,sans-Serif" font-size="10.00" fill="#000000"> ()</text>
<text text-anchor="start" x="12.937" y="-13" font-family="Helvetica,sans-Serif" font-size="10.00" fill="#000000">(brand:string):base(brand)</text>
</g>
<!-- A2&#45;&gt;A3 -->
<g id="edge2" class="edge">
<title>A2&#45;&gt;A3</title>
<path fill="none" stroke="#000000" stroke-dasharray="5,2" d="M71,-191.4353C71,-177.9941 71,-164.7012 71,-152.1832"/>
<polygon fill="#000000" stroke="#000000" points="71,-201.7324 66.5001,-191.7324 71,-196.7324 71.0001,-191.7324 71.0001,-191.7324 71.0001,-191.7324 71,-196.7324 75.5001,-191.7325 71,-201.7324 71,-201.7324"/>
</g>
</g>
</svg>
