<?xml version="1.0" encoding="UTF-8" standalone="no"?>
<!DOCTYPE svg PUBLIC "-//W3C//DTD SVG 1.1//EN"
 "http://www.w3.org/Graphics/SVG/1.1/DTD/svg11.dtd">
<!-- Generated by graphviz version 2.40.1 (20161225.0304)
 -->
<!-- Title: G Pages: 1 -->
<svg width="302pt" height="454pt"
 viewBox="0.00 0.00 302.00 454.00" xmlns="http://www.w3.org/2000/svg" xmlns:xlink="http://www.w3.org/1999/xlink">
<g id="graph0" class="graph" transform="scale(1 1) rotate(0) translate(4 450)">
<title>G</title>
<polygon fill="#ffffff" stroke="transparent" points="-4,4 -4,-450 298,-450 298,4 -4,4"/>
<!-- A0 -->
<g id="node1" class="node">
<title>A0</title>
<polygon fill="none" stroke="#000000" points="90,-414 90,-446 196,-446 196,-414 90,-414"/>
<text text-anchor="start" x="106.741" y="-427" font-family="Helvetica,sans-Serif" font-size="10.00" fill="#000000">+A:RugbyPlayer</text>
<polygon fill="none" stroke="#000000" points="90,-358 90,-414 196,-414 196,-358 90,-358"/>
<text text-anchor="start" x="104.942" y="-395" font-family="Helvetica,sans-Serif" font-size="10.00" fill="#000000"> &#45;nickname:string</text>
<text text-anchor="start" x="116.186" y="-371" font-family="Helvetica,sans-Serif" font-size="10.00" fill="#000000">+position:int</text>
<polygon fill="none" stroke="#000000" points="90,-242 90,-358 196,-358 196,-242 90,-242"/>
<text text-anchor="start" x="99.803" y="-339" font-family="Helvetica,sans-Serif" font-size="10.00" fill="#000000"> +Nickname:string:r</text>
<text text-anchor="start" x="127.583" y="-315" font-family="Helvetica,sans-Serif" font-size="10.00" fill="#000000">+Run()</text>
<text text-anchor="start" x="120.079" y="-303" font-family="Helvetica,sans-Serif" font-size="10.00" fill="#000000"> +Pass():a</text>
<text text-anchor="start" x="117.8595" y="-279" font-family="Helvetica,sans-Serif" font-size="10.00" fill="#000000">+Tackle():a</text>
<text text-anchor="start" x="116.7455" y="-255" font-family="Helvetica,sans-Serif" font-size="10.00" fill="#000000">+Offload():v</text>
</g>
<!-- A3 -->
<g id="node4" class="node">
<title>A3</title>
<polygon fill="none" stroke="#000000" points="25,-160 25,-192 140,-192 140,-160 25,-160"/>
<text text-anchor="start" x="58.4645" y="-173" font-family="Helvetica,sans-Serif" font-size="10.00" fill="#000000">+EightMan</text>
<polygon fill="none" stroke="#000000" points="25,-128 25,-160 140,-160 140,-128 25,-128"/>
<text text-anchor="start" x="34.8485" y="-141" font-family="Helvetica,sans-Serif" font-size="10.00" fill="#000000"> +isBigAndScary:bool</text>
<polygon fill="none" stroke="#000000" points="25,0 25,-128 140,-128 140,0 25,0"/>
<text text-anchor="start" x="60.419" y="-109" font-family="Helvetica,sans-Serif" font-size="10.00" fill="#000000"> +Scrum()</text>
<text text-anchor="start" x="53.465" y="-85" font-family="Helvetica,sans-Serif" font-size="10.00" fill="#000000">+PodAttack()</text>
<text text-anchor="start" x="60.9685" y="-61" font-family="Helvetica,sans-Serif" font-size="10.00" fill="#000000">+Pass():o</text>
<text text-anchor="start" x="57.3595" y="-37" font-family="Helvetica,sans-Serif" font-size="10.00" fill="#000000">+Tackle():o</text>
<text text-anchor="start" x="55.966" y="-13" font-family="Helvetica,sans-Serif" font-size="10.00" fill="#000000">+Offload():o</text>
</g>
<!-- A0&#45;&gt;A3 -->
<g id="edge1" class="edge">
<title>A0&#45;&gt;A3</title>
<path fill="none" stroke="#000000" stroke-dasharray="5,2" d="M115.3635,-231.6416C112.1147,-218.4337 108.8223,-205.0481 105.6353,-192.0912"/>
<polygon fill="#000000" stroke="#000000" points="117.8368,-241.6971 111.0785,-233.0614 116.6425,-236.8418 115.4482,-231.9865 115.4482,-231.9865 115.4482,-231.9865 116.6425,-236.8418 119.818,-230.9117 117.8368,-241.6971 117.8368,-241.6971"/>
</g>
<!-- A4 -->
<g id="node5" class="node">
<title>A4</title>
<polygon fill="none" stroke="#000000" points="181,-154 181,-186 279,-186 279,-154 181,-154"/>
<text text-anchor="start" x="190.9625" y="-167" font-family="Helvetica,sans-Serif" font-size="10.00" fill="#000000">+StrongSideWing</text>
<polygon fill="none" stroke="#000000" points="181,-122 181,-154 279,-154 279,-122 181,-122"/>
<text text-anchor="start" x="201.5205" y="-135" font-family="Helvetica,sans-Serif" font-size="10.00" fill="#000000"> +isFast:bool</text>
<polygon fill="none" stroke="#000000" points="181,-6 181,-122 279,-122 279,-6 181,-6"/>
<text text-anchor="start" x="197.0805" y="-103" font-family="Helvetica,sans-Serif" font-size="10.00" fill="#000000"> +BreakAway()</text>
<text text-anchor="start" x="214.3075" y="-79" font-family="Helvetica,sans-Serif" font-size="10.00" fill="#000000">+Kick()</text>
<text text-anchor="start" x="207.079" y="-67" font-family="Helvetica,sans-Serif" font-size="10.00" fill="#000000"> +Pass():o</text>
<text text-anchor="start" x="204.8595" y="-43" font-family="Helvetica,sans-Serif" font-size="10.00" fill="#000000">+Tackle():o</text>
<text text-anchor="start" x="203.466" y="-19" font-family="Helvetica,sans-Serif" font-size="10.00" fill="#000000">+Offload():o</text>
</g>
<!-- A0&#45;&gt;A4 -->
<g id="edge2" class="edge">
<title>A0&#45;&gt;A4</title>
<path fill="none" stroke="#000000" stroke-dasharray="5,2" d="M182.2366,-232.1532C187.637,-216.7589 193.1259,-201.1124 198.3661,-186.1749"/>
<polygon fill="#000000" stroke="#000000" points="178.8885,-241.6971 177.9526,-230.7712 180.5437,-236.979 182.1989,-232.2609 182.1989,-232.2609 182.1989,-232.2609 180.5437,-236.979 186.4452,-233.7505 178.8885,-241.6971 178.8885,-241.6971"/>
</g>
<!-- A1 -->
<g id="node2" class="node">
<title>A1</title>
<polygon fill="none" stroke="#000000" points="0,-356 0,-388 72,-388 72,-356 0,-356"/>
<text text-anchor="start" x="11.97" y="-369" font-family="Helvetica,sans-Serif" font-size="10.00" fill="#000000">+I:Forward</text>
<polygon fill="none" stroke="#000000" points="0,-300 0,-356 72,-356 72,-300 0,-300"/>
<text text-anchor="start" x="16.8385" y="-337" font-family="Helvetica,sans-Serif" font-size="10.00" fill="#000000"> Scrum()</text>
<text text-anchor="start" x="9.8845" y="-313" font-family="Helvetica,sans-Serif" font-size="10.00" fill="#000000">PodAttack()</text>
</g>
<!-- A1&#45;&gt;A3 -->
<g id="edge3" class="edge">
<title>A1&#45;&gt;A3</title>
<path fill="none" stroke="#000000" d="M46.0608,-289.759C51.3674,-261.1495 58.0362,-225.1963 64.1837,-192.0531"/>
<polygon fill="none" stroke="#000000" points="42.5534,-289.4777 44.1709,-299.9483 49.436,-290.7544 42.5534,-289.4777"/>
</g>
<!-- A2 -->
<g id="node3" class="node">
<title>A2</title>
<polygon fill="none" stroke="#000000" points="214,-356 214,-388 294,-388 294,-356 214,-356"/>
<text text-anchor="start" x="237.1875" y="-369" font-family="Helvetica,sans-Serif" font-size="10.00" fill="#000000">+I:Back</text>
<polygon fill="none" stroke="#000000" points="214,-300 214,-356 294,-356 294,-300 214,-300"/>
<text text-anchor="start" x="224" y="-337" font-family="Helvetica,sans-Serif" font-size="10.00" fill="#000000"> BreakAway()</text>
<text text-anchor="start" x="241.227" y="-313" font-family="Helvetica,sans-Serif" font-size="10.00" fill="#000000">Kick()</text>
</g>
<!-- A2&#45;&gt;A4 -->
<g id="edge4" class="edge">
<title>A2&#45;&gt;A4</title>
<path fill="none" stroke="#000000" d="M248.7731,-289.9883C245.8348,-259.6258 242.0909,-220.9389 238.7207,-186.1142"/>
<polygon fill="none" stroke="#000000" points="245.2899,-290.332 249.7369,-299.9483 252.2573,-289.6577 245.2899,-290.332"/>
</g>
</g>
</svg>
