<?xml version="1.0" encoding="UTF-8" standalone="no"?>
<!DOCTYPE svg PUBLIC "-//W3C//DTD SVG 1.1//EN"
 "http://www.w3.org/Graphics/SVG/1.1/DTD/svg11.dtd">
<!-- Generated by graphviz version 2.40.1 (20161225.0304)
 -->
<!-- Title: G Pages: 1 -->
<svg width="182pt" height="298pt"
 viewBox="0.00 0.00 181.50 298.00" xmlns="http://www.w3.org/2000/svg" xmlns:xlink="http://www.w3.org/1999/xlink">
<g id="graph0" class="graph" transform="scale(1 1) rotate(0) translate(4 294)">
<title>G</title>
<polygon fill="#ffffff" stroke="transparent" points="-4,4 -4,-294 177.5,-294 177.5,4 -4,4"/>
<!-- A0 -->
<g id="node1" class="node">
<title>A0</title>
<polygon fill="none" stroke="#000000" points="8,-258 8,-290 84,-290 84,-258 8,-258"/>
<text text-anchor="start" x="18.915" y="-271" font-family="Helvetica,sans-Serif" font-size="10.00" fill="#000000">+A:HotDrink</text>
<polygon fill="none" stroke="#000000" points="8,-214 8,-258 84,-258 84,-214 8,-214"/>
<text text-anchor="start" x="32.8075" y="-239" font-family="Helvetica,sans-Serif" font-size="10.00" fill="#000000"> +Milk</text>
<text text-anchor="start" x="28.3535" y="-227" font-family="Helvetica,sans-Serif" font-size="10.00" fill="#000000"> +Sugar</text>
<polygon fill="none" stroke="#000000" points="8,-134 8,-214 84,-214 84,-134 8,-134"/>
<text text-anchor="start" x="26.699" y="-195" font-family="Helvetica,sans-Serif" font-size="10.00" fill="#000000"> +Drink()</text>
<text text-anchor="start" x="21.9745" y="-171" font-family="Helvetica,sans-Serif" font-size="10.00" fill="#000000">+AddMilk()</text>
<text text-anchor="start" x="17.5205" y="-147" font-family="Helvetica,sans-Serif" font-size="10.00" fill="#000000">+AddSugar()</text>
</g>
<!-- A2 -->
<g id="node3" class="node">
<title>A2</title>
<polygon fill="none" stroke="#000000" points="0,-52 0,-84 84,-84 84,-52 0,-52"/>
<text text-anchor="start" x="9.906" y="-65" font-family="Helvetica,sans-Serif" font-size="10.00" fill="#000000">+CupOfCoffee</text>
<polygon fill="none" stroke="#000000" points="0,-20 0,-52 84,-52 84,-20 0,-20"/>
<text text-anchor="start" x="14.9045" y="-33" font-family="Helvetica,sans-Serif" font-size="10.00" fill="#000000"> +BeanType</text>
<polygon fill="none" stroke="#000000" points="0,0 0,-20 84,-20 84,0 0,0"/>
</g>
<!-- A0&#45;&gt;A2 -->
<g id="edge2" class="edge">
<title>A0&#45;&gt;A2</title>
<path fill="none" stroke="#000000" stroke-dasharray="5,2" d="M43.9275,-123.919C43.6028,-110.1192 43.2807,-96.4279 42.9954,-84.3024"/>
<polygon fill="#000000" stroke="#000000" points="44.1639,-133.9657 39.4298,-124.0744 44.0462,-128.9671 43.9286,-123.9685 43.9286,-123.9685 43.9286,-123.9685 44.0462,-128.9671 48.4273,-123.8626 44.1639,-133.9657 44.1639,-133.9657"/>
</g>
<!-- A3 -->
<g id="node4" class="node">
<title>A3</title>
<polygon fill="none" stroke="#000000" points="103,-52 103,-84 174,-84 174,-52 103,-52"/>
<text text-anchor="start" x="112.5195" y="-65" font-family="Helvetica,sans-Serif" font-size="10.00" fill="#000000">+CupOfTea</text>
<polygon fill="none" stroke="#000000" points="103,-20 103,-52 174,-52 174,-20 103,-20"/>
<text text-anchor="start" x="113.3495" y="-33" font-family="Helvetica,sans-Serif" font-size="10.00" fill="#000000"> +LeafType</text>
<polygon fill="none" stroke="#000000" points="103,0 103,-20 174,-20 174,0 103,0"/>
</g>
<!-- A0&#45;&gt;A3 -->
<g id="edge4" class="edge">
<title>A0&#45;&gt;A3</title>
<path fill="none" stroke="#000000" stroke-dasharray="5,2" d="M89.155,-132.257C98.0855,-115.7551 107.1594,-98.988 115.0237,-84.4562"/>
<polygon fill="#000000" stroke="#000000" points="84.217,-141.3816 85.0189,-130.445 86.5968,-136.9842 88.9766,-132.5868 88.9766,-132.5868 88.9766,-132.5868 86.5968,-136.9842 92.9342,-134.7286 84.217,-141.3816 84.217,-141.3816"/>
</g>
<!-- A1 -->
<g id="node2" class="node">
<title>A1</title>
<polygon fill="none" stroke="#000000" points="104,-236 104,-268 166,-268 166,-236 104,-236"/>
<text text-anchor="start" x="118.7435" y="-249" font-family="Helvetica,sans-Serif" font-size="10.00" fill="#000000">+I:ICup</text>
<polygon fill="none" stroke="#000000" points="104,-156 104,-236 166,-236 166,-156 104,-156"/>
<text text-anchor="start" x="118.7485" y="-217" font-family="Helvetica,sans-Serif" font-size="10.00" fill="#000000"> +Color</text>
<text text-anchor="start" x="113.744" y="-205" font-family="Helvetica,sans-Serif" font-size="10.00" fill="#000000"> +Volume</text>
<text text-anchor="start" x="117.6445" y="-181" font-family="Helvetica,sans-Serif" font-size="10.00" fill="#000000">+Refill()</text>
<text text-anchor="start" x="114.5835" y="-169" font-family="Helvetica,sans-Serif" font-size="10.00" fill="#000000"> +Wash()</text>
</g>
<!-- A1&#45;&gt;A2 -->
<g id="edge1" class="edge">
<title>A1&#45;&gt;A2</title>
<path fill="none" stroke="#000000" d="M99.9677,-146.7978C97.6154,-142.4637 95.2768,-138.1671 93,-134 84.0686,-117.6534 74.158,-99.7278 65.4664,-84.0765"/>
<polygon fill="none" stroke="#000000" points="96.959,-148.5921 104.7999,-155.7175 103.1139,-145.2577 96.959,-148.5921"/>
</g>
<!-- A1&#45;&gt;A3 -->
<g id="edge3" class="edge">
<title>A1&#45;&gt;A3</title>
<path fill="none" stroke="#000000" d="M136.1679,-145.8174C136.5345,-125.0453 136.9289,-102.6948 137.2576,-84.0719"/>
<polygon fill="none" stroke="#000000" points="132.6677,-145.8043 135.9906,-155.8645 139.6666,-145.9278 132.6677,-145.8043"/>
</g>
</g>
</svg>
