<?xml version="1.0" encoding="UTF-8" standalone="no"?>
<!DOCTYPE svg PUBLIC "-//W3C//DTD SVG 1.1//EN"
 "http://www.w3.org/Graphics/SVG/1.1/DTD/svg11.dtd">
<!-- Generated by graphviz version 2.40.1 (20161225.0304)
 -->
<!-- Title: G Pages: 1 -->
<svg width="106pt" height="250pt"
 viewBox="0.00 0.00 106.00 250.00" xmlns="http://www.w3.org/2000/svg" xmlns:xlink="http://www.w3.org/1999/xlink">
<g id="graph0" class="graph" transform="scale(1 1) rotate(0) translate(4 246)">
<title>G</title>
<polygon fill="#ffffff" stroke="transparent" points="-4,4 -4,-246 102,-246 102,4 -4,4"/>
<!-- A0 -->
<g id="node1" class="node">
<title>A0</title>
<polygon fill="none" stroke="#000000" points="11,-210 11,-242 88,-242 88,-210 11,-210"/>
<text text-anchor="start" x="27.4175" y="-223" font-family="Helvetica,sans-Serif" font-size="10.00" fill="#000000">+MyClass</text>
<polygon fill="none" stroke="#000000" points="11,-178 11,-210 88,-210 88,-178 11,-178"/>
<text text-anchor="start" x="26.7245" y="-191" font-family="Helvetica,sans-Serif" font-size="10.00" fill="#000000"> &#45;myString</text>
<polygon fill="none" stroke="#000000" points="11,-146 11,-178 88,-178 88,-146 11,-146"/>
<text text-anchor="start" x="20.7465" y="-159" font-family="Helvetica,sans-Serif" font-size="10.00" fill="#000000"> +GetString()</text>
</g>
<!-- A1 -->
<g id="node2" class="node">
<title>A1</title>
<polygon fill="none" stroke="#000000" points="0,-64 0,-96 98,-96 98,-64 0,-64"/>
<text text-anchor="start" x="9.6955" y="-77" font-family="Helvetica,sans-Serif" font-size="10.00" fill="#000000">+MyDerivedClass</text>
<polygon fill="none" stroke="#000000" points="0,-32 0,-64 98,-64 98,-32 0,-32"/>
<text text-anchor="start" x="47.6105" y="-45" font-family="Helvetica,sans-Serif" font-size="10.00" fill="#000000"> </text>
<polygon fill="none" stroke="#000000" points="0,0 0,-32 98,-32 98,0 0,0"/>
<text text-anchor="start" x="20.2465" y="-13" font-family="Helvetica,sans-Serif" font-size="10.00" fill="#000000"> +GetString()</text>
</g>
<!-- A0&#45;&gt;A1 -->
<g id="edge1" class="edge">
<title>A0&#45;&gt;A1</title>
<path fill="none" stroke="#000000" d="M49,-135.4923C49,-122.4385 49,-108.7404 49,-96.1599"/>
<polygon fill="#000000" stroke="#000000" points="49,-145.7895 44.5001,-135.7895 49,-140.7895 49.0001,-135.7895 49.0001,-135.7895 49.0001,-135.7895 49,-140.7895 53.5001,-135.7896 49,-145.7895 49,-145.7895"/>
</g>
</g>
</svg>
